<?xml version="1.0" encoding="utf-8"?>
<!-- Generator: Adobe Illustrator 24.3.0, SVG Export Plug-In . SVG Version: 6.00 Build 0)  -->
<svg version="1.2" baseProfile="tiny" xmlns="http://www.w3.org/2000/svg" xmlns:xlink="http://www.w3.org/1999/xlink" x="0px"
	 y="0px" viewBox="0 0 92.04 92.31" overflow="visible" xml:space="preserve">
<g id="Layer_1">
	<linearGradient id="SVGID_1_" gradientUnits="userSpaceOnUse" x1="17.8697" y1="30.1338" x2="17.8697" y2="62.9198">
		<stop  offset="0" style="stop-color:#7C6EB0"/>
		<stop  offset="1" style="stop-color:#22ADE4"/>
	</linearGradient>
	<polygon fill="url(#SVGID_1_)" points="30.43,62.92 25.56,62.92 10.13,38.67 10.13,62.92 5.31,62.92 5.31,30.13 10.13,30.13 
		25.56,54.38 25.56,30.13 30.43,30.13 	"/>
	<linearGradient id="SVGID_2_" gradientUnits="userSpaceOnUse" x1="48.2682" y1="30.1338" x2="48.2682" y2="62.9198">
		<stop  offset="0" style="stop-color:#7C6EB0"/>
		<stop  offset="1" style="stop-color:#22ADE4"/>
	</linearGradient>
	<polygon fill="url(#SVGID_2_)" points="58.88,62.92 37.66,62.92 37.66,30.13 42.48,30.13 42.48,58.1 58.88,58.1 	"/>
	<linearGradient id="SVGID_3_" gradientUnits="userSpaceOnUse" x1="74.7857" y1="30.1338" x2="74.7857" y2="62.9198">
		<stop  offset="0" style="stop-color:#7C6EB0"/>
		<stop  offset="1" style="stop-color:#22ADE4"/>
	</linearGradient>
	<polygon fill="url(#SVGID_3_)" points="67.55,62.92 62.73,62.92 62.73,30.13 86.84,30.13 86.84,34.96 67.55,34.96 67.55,44.12 
		83.95,44.12 83.95,48.94 67.55,48.94 	"/>
</g>
<g id="Layer_2">
	<linearGradient id="SVGID_4_" gradientUnits="userSpaceOnUse" x1="46.1538" y1="1.2418" x2="46.1538" y2="91.3297">
		<stop  offset="0" style="stop-color:#973B8E"/>
		<stop  offset="1" style="stop-color:#009FDD"/>
	</linearGradient>
	<polyline fill="none" stroke="url(#SVGID_4_)" stroke-width="2" stroke-miterlimit="10" points="36.31,90.33 90.07,90.33 
		90.07,2.24 2.24,2.24 2.24,26.69 	"/>
</g>
</svg>
