<?xml version="1.0" encoding="utf-8"?>
<!-- Generator: Adobe Illustrator 26.0.1, SVG Export Plug-In . SVG Version: 6.00 Build 0)  -->
<svg version="1.2" baseProfile="tiny" id="Layer_1" xmlns="http://www.w3.org/2000/svg" xmlns:xlink="http://www.w3.org/1999/xlink"
	 x="0px" y="0px" viewBox="0 0 800 392.6" overflow="visible" xml:space="preserve">
<g id="Layer_1_00000126293764696098657400000002299482010369786807_">
</g>
<g id="Layer_2_00000031187271020541836670000001978999771094480806_">
	<g>
		<linearGradient id="SVGID_1_" gradientUnits="userSpaceOnUse" x1="171.3448" y1="339.7848" x2="171.3448" y2="58.8606">
			<stop  offset="0" style="stop-color:#8C4192"/>
			<stop  offset="1" style="stop-color:#2C9CD7"/>
		</linearGradient>
		<path fill="url(#SVGID_1_)" d="M283.9,58.9v280.9h-58.7l-113.8-204v204H58.8V58.9h58.7l113.8,203.7V58.9H283.9z"/>
		
			<linearGradient id="SVGID_00000168096782583043073580000011139841705511339139_" gradientUnits="userSpaceOnUse" x1="433.2538" y1="339.7849" x2="433.2538" y2="58.8606">
			<stop  offset="0" style="stop-color:#8C4192"/>
			<stop  offset="1" style="stop-color:#2C9CD7"/>
		</linearGradient>
		<path fill="url(#SVGID_00000168096782583043073580000011139841705511339139_)" d="M524.5,309.9v29.9H342V58.9h56.9v251.1H524.5z"
			/>
		
			<linearGradient id="SVGID_00000154412877879145141780000002861238117374816668_" gradientUnits="userSpaceOnUse" x1="655.2809" y1="339.8052" x2="655.2809" y2="58.8606">
			<stop  offset="0" style="stop-color:#8C4192"/>
			<stop  offset="1" style="stop-color:#2C9CD7"/>
		</linearGradient>
		<path fill="url(#SVGID_00000154412877879145141780000002861238117374816668_)" d="M623.4,88.7v101.5H718v29.9h-94.6v119.7h-56.9
			V58.9H744v29.9H623.4z"/>
	</g>
	
		<linearGradient id="SVGID_00000065753070962800976130000004225328811399624069_" gradientUnits="userSpaceOnUse" x1="400.4427" y1="0.6546" x2="400.4427" y2="389.1271" gradientTransform="matrix(1 0 0 -1 0 391.609)">
		<stop  offset="0" style="stop-color:#8C4192"/>
		<stop  offset="1" style="stop-color:#2C9CD7"/>
	</linearGradient>
	
		<polyline fill="none" stroke="url(#SVGID_00000065753070962800976130000004225328811399624069_)" stroke-width="10" stroke-miterlimit="10" points="
		305,386 793.2,386 793.2,7.5 7.7,7.5 7.7,137.7 	"/>
</g>
</svg>
